<svg width="28" height="28" viewBox="0 0 28 28" fill="none" xmlns="http://www.w3.org/2000/svg">
<path fill-rule="evenodd" clip-rule="evenodd" d="M2.62383 2.67428C2.16794 2.514 1.66843 2.75364 1.50815 3.20953C1.34786 3.66543 1.5875 4.16493 2.0434 4.32522L2.34815 4.43236C3.12701 4.7062 3.6389 4.88767 4.01555 5.07248C4.36931 5.24606 4.52526 5.38656 4.628 5.5369C4.7333 5.691 4.81462 5.90266 4.8605 6.32657C4.90851 6.77015 4.9097 7.34789 4.9097 8.21117V11.3864C4.9097 13.081 4.9256 14.303 5.08551 15.2365C5.25621 16.2332 5.59703 16.9468 6.23431 17.619C6.92715 18.3497 7.80542 18.6678 8.85103 18.8161C9.8523 18.9581 11.1238 18.9581 12.6938 18.9581H19.0005C19.8658 18.9581 20.5938 18.9581 21.183 18.886C21.808 18.8096 22.378 18.6423 22.8756 18.2369C23.3732 17.8313 23.652 17.3068 23.8531 16.7102C24.0426 16.1476 24.1896 15.4346 24.3642 14.5872L24.958 11.7062L24.9591 11.7008L24.9713 11.6399C25.1634 10.6775 25.325 9.86799 25.3652 9.21686C25.4074 8.53296 25.3295 7.85861 24.8841 7.27949C24.6099 6.92317 24.2246 6.72144 23.874 6.59826C23.5164 6.47262 23.1121 6.39994 22.7041 6.35432C21.9025 6.26472 20.9288 6.26474 19.9737 6.26475H6.61281C6.60898 6.22187 6.60482 6.1797 6.60034 6.13825C6.53766 5.55914 6.40183 5.03096 6.07286 4.54955C5.74131 4.06438 5.30049 3.75365 4.78642 3.50142C4.30565 3.26552 3.69475 3.05076 2.97546 2.7979L2.62383 2.67428ZM6.6597 8.01475H19.9372C20.9363 8.01475 21.8157 8.01591 22.5096 8.09349C22.8545 8.13203 23.1125 8.18558 23.2938 8.24931C23.442 8.30139 23.4922 8.34391 23.4994 8.35006C23.4993 8.34993 23.4997 8.35032 23.4994 8.35006C23.571 8.44504 23.6488 8.61735 23.6185 9.10905C23.5865 9.62654 23.4506 10.3175 23.2434 11.3558L23.243 11.3584L22.661 14.1819C22.4727 15.0951 22.346 15.7023 22.1947 16.1512C22.0511 16.5775 21.9162 16.7611 21.77 16.8803C21.624 16.9993 21.4169 17.0943 20.9704 17.1489C20.5 17.2066 19.8799 17.2081 18.9474 17.2081H12.7607C11.1078 17.2081 9.96084 17.206 9.09673 17.0835C8.26278 16.9652 7.82223 16.7503 7.50426 16.4149C7.13073 16.021 6.92926 15.6352 6.81039 14.9411C6.6807 14.1839 6.6597 13.1236 6.6597 11.3864V8.01475Z" fill="white"/>
<path fill-rule="evenodd" clip-rule="evenodd" d="M8.75024 25.375C7.3005 25.375 6.12524 24.1997 6.12524 22.75C6.12524 21.3002 7.3005 20.125 8.75024 20.125C10.2 20.125 11.3752 21.3002 11.3752 22.75C11.3752 24.1997 10.2 25.375 8.75024 25.375ZM7.87524 22.75C7.87524 23.2332 8.267 23.625 8.75024 23.625C9.2335 23.625 9.62524 23.2332 9.62524 22.75C9.62524 22.2668 9.2335 21.875 8.75024 21.875C8.267 21.875 7.87524 22.2668 7.87524 22.75Z" fill="white"/>
<path fill-rule="evenodd" clip-rule="evenodd" d="M19.2502 25.375C17.8005 25.375 16.6252 24.1997 16.6252 22.75C16.6252 21.3002 17.8005 20.125 19.2502 20.125C20.6999 20.125 21.8752 21.3002 21.8752 22.75C21.8752 24.1997 20.6999 25.375 19.2502 25.375ZM18.3752 22.75C18.3752 23.2332 18.767 23.625 19.2502 23.625C19.7335 23.625 20.1252 23.2332 20.1252 22.75C20.1252 22.2668 19.7335 21.875 19.2502 21.875C18.767 21.875 18.3752 22.2668 18.3752 22.75Z" fill="white"/>
</svg>
