<svg width="36" height="36" viewBox="0 0 36 36" fill="none" xmlns="http://www.w3.org/2000/svg">
<path fill-rule="evenodd" clip-rule="evenodd" d="M3.37344 3.43863C2.7873 3.23254 2.14508 3.54066 1.93899 4.1268C1.73291 4.71295 2.04102 5.35518 2.62718 5.56126L3.01899 5.69901C4.02039 6.05109 4.67853 6.28441 5.16279 6.52203C5.61764 6.7452 5.81814 6.92584 5.95023 7.11913C6.08562 7.31727 6.19017 7.5894 6.24917 8.13442C6.31089 8.70474 6.31242 9.44755 6.31242 10.5575V14.6399C6.31242 16.8187 6.33287 18.3898 6.53846 19.5901C6.75794 20.8715 7.19613 21.7889 8.01549 22.6532C8.90628 23.5927 10.0355 24.0017 11.3798 24.1924C12.6672 24.3749 14.302 24.375 16.3206 24.375H24.4292C25.5417 24.375 26.4777 24.375 27.2352 24.2822C28.0388 24.184 28.7717 23.9689 29.4114 23.4476C30.0512 22.9262 30.4097 22.2519 30.6683 21.4848C30.9119 20.7614 31.1009 19.8448 31.3254 18.7552L32.0888 15.0511L32.0903 15.0442L32.1059 14.9658C32.3529 13.7285 32.5607 12.6877 32.6124 11.8505C32.6666 10.9712 32.5665 10.1042 31.9938 9.35961C31.6413 8.90148 31.1459 8.64211 30.6951 8.48374C30.2354 8.32221 29.7155 8.22876 29.1909 8.17011C28.1603 8.05491 26.9084 8.05492 25.6805 8.05494H8.50214C8.4972 7.99981 8.49186 7.94559 8.4861 7.89229C8.40551 7.14772 8.23088 6.46864 7.80791 5.84968C7.38164 5.22589 6.81486 4.82638 6.15392 4.50208C5.53578 4.19878 4.75034 3.92266 3.82554 3.59757L3.37344 3.43863ZM8.56242 10.3049H25.6335C26.9181 10.3049 28.0487 10.3064 28.9409 10.4062C29.3843 10.4557 29.7161 10.5246 29.9492 10.6065C30.1397 10.6735 30.2042 10.7281 30.2135 10.7361C30.2133 10.7359 30.2139 10.7364 30.2135 10.7361C30.3056 10.8582 30.4056 11.0797 30.3666 11.7119C30.3255 12.3772 30.1508 13.2656 29.8844 14.6005L29.8838 14.6039L29.1356 18.2341C28.8935 19.4083 28.7306 20.1889 28.536 20.7661C28.3514 21.3142 28.178 21.5503 27.99 21.7034C27.8022 21.8564 27.536 21.9787 26.9619 22.0489C26.3571 22.123 25.5599 22.125 24.3609 22.125H16.4066C14.2814 22.125 12.8067 22.1222 11.6957 21.9648C10.6235 21.8127 10.0571 21.5364 9.64829 21.1051C9.16803 20.5987 8.909 20.1026 8.75616 19.2103C8.58942 18.2367 8.56242 16.8735 8.56242 14.6399V10.3049Z" fill="#484848" fill-opacity="0.7"/>
<path fill-rule="evenodd" clip-rule="evenodd" d="M11.25 32.625C9.38604 32.625 7.875 31.1139 7.875 29.25C7.875 27.386 9.38604 25.875 11.25 25.875C13.114 25.875 14.625 27.386 14.625 29.25C14.625 31.1139 13.114 32.625 11.25 32.625ZM10.125 29.25C10.125 29.8713 10.6287 30.375 11.25 30.375C11.8713 30.375 12.375 29.8713 12.375 29.25C12.375 28.6287 11.8713 28.125 11.25 28.125C10.6287 28.125 10.125 28.6287 10.125 29.25Z" fill="#484848" fill-opacity="0.7"/>
<path fill-rule="evenodd" clip-rule="evenodd" d="M24.75 32.6251C22.8861 32.6251 21.375 31.114 21.375 29.2501C21.375 27.3861 22.8861 25.8751 24.75 25.8751C26.6139 25.8751 28.125 27.3861 28.125 29.2501C28.125 31.114 26.6139 32.6251 24.75 32.6251ZM23.625 29.2501C23.625 29.8714 24.1287 30.3751 24.75 30.3751C25.3713 30.3751 25.875 29.8714 25.875 29.2501C25.875 28.6288 25.3713 28.1251 24.75 28.1251C24.1287 28.1251 23.625 28.6288 23.625 29.2501Z" fill="#484848" fill-opacity="0.7"/>
</svg>
