<svg width="640" height="640" viewBox="0 0 640 640" fill="none" xmlns="http://www.w3.org/2000/svg">
<rect width="640" height="640" rx="320" fill="white"/>
<path d="M268.799 490.046L273.301 490.651C273.113 492.471 273.269 494.038 273.769 495.352C274.288 496.653 275.273 497.839 276.723 498.91C278.176 499.965 279.908 500.718 281.918 501.17C283.704 501.571 285.339 501.66 286.826 501.435C288.312 501.211 289.488 500.713 290.353 499.943C291.238 499.16 291.803 498.221 292.048 497.125C292.297 496.013 292.192 494.974 291.733 494.008C291.277 493.025 290.372 492.086 289.019 491.189C288.153 490.605 286.182 489.561 283.106 488.057C280.034 486.537 277.924 485.284 276.777 484.299C275.286 483.033 274.269 481.653 273.725 480.16C273.201 478.654 273.121 477.087 273.485 475.46C273.886 473.671 274.766 472.117 276.126 470.798C277.489 469.463 279.234 468.611 281.361 468.243C283.487 467.874 285.741 467.958 288.122 468.493C290.743 469.082 292.956 470.028 294.759 471.331C296.582 472.621 297.848 474.208 298.558 476.094C299.267 477.98 299.429 479.972 299.044 482.068L294.481 481.398C294.741 479.104 294.3 477.228 293.157 475.769C292.03 474.314 290.107 473.281 287.389 472.67C284.558 472.033 282.374 472.092 280.836 472.847C279.319 473.589 278.396 474.693 278.067 476.16C277.782 477.433 278.006 478.583 278.739 479.611C279.455 480.635 281.614 482.009 285.215 483.733C288.836 485.444 291.282 486.781 292.553 487.743C294.399 489.157 295.648 490.707 296.301 492.394C296.957 494.065 297.072 495.851 296.646 497.753C296.224 499.638 295.287 501.298 293.834 502.731C292.384 504.149 290.542 505.097 288.306 505.576C286.089 506.043 283.719 505.992 281.193 505.424C277.993 504.705 275.411 503.634 273.449 502.211C271.503 500.792 270.12 499.008 269.3 496.861C268.5 494.701 268.333 492.429 268.799 490.046Z" fill="#484848"/>
<path d="M311.339 509.628L313.339 477.66L301.419 476.912L301.687 472.635L330.363 474.435L330.095 478.713L318.126 477.961L316.126 509.929L311.339 509.628Z" fill="#484848"/>
<path d="M334.472 511L333.074 474.711L359.264 473.698L359.429 477.98L338.032 478.808L338.46 489.922L358.498 489.147L358.663 493.405L338.624 494.18L339.1 506.532L361.337 505.672L361.502 509.955L334.472 511Z" fill="#484848"/>
<path d="M370.123 508.143L361.151 472.956L365.799 471.767L370.248 489.216L383.24 467.303L389.54 465.691L378.442 483.718L399.159 500.712L393.026 502.281L375.979 487.672L371.662 494.76L374.77 506.953L370.123 508.143Z" fill="#484848"/>
<path d="M403.735 499.149L389.709 465.662L394.132 463.802L406.503 493.338L422.965 486.417L424.62 490.369L403.735 499.149Z" fill="#484848"/>
<path d="M421.039 472.742C417.446 467.907 415.932 463.158 416.495 458.496C417.049 453.821 419.376 449.955 423.475 446.898C426.159 444.896 429.056 443.734 432.166 443.411C435.276 443.088 438.25 443.661 441.086 445.127C443.926 446.571 446.429 448.75 448.595 451.664C450.79 454.618 452.159 457.705 452.701 460.924C453.244 464.143 452.872 467.169 451.586 470.002C450.29 472.821 448.38 475.173 445.854 477.056C443.117 479.098 440.179 480.26 437.039 480.543C433.9 480.826 430.923 480.235 428.109 478.772C425.296 477.309 422.939 475.299 421.039 472.742ZM425.05 469.843C427.659 473.353 430.655 475.422 434.039 476.048C437.426 476.651 440.541 475.893 443.383 473.773C446.279 471.613 447.901 468.818 448.25 465.387C448.611 461.947 447.399 458.352 444.613 454.603C442.851 452.232 440.912 450.466 438.797 449.306C436.684 448.122 434.495 447.624 432.23 447.811C429.967 447.975 427.878 448.771 425.96 450.201C423.237 452.233 421.588 454.924 421.016 458.275C420.447 461.602 421.792 465.458 425.05 469.843Z" fill="#484848"/>
<path d="M486.222 435.887C486.424 438.076 486.24 440.088 485.67 441.921C485.088 443.744 484.114 445.395 482.748 446.874C480.23 449.602 477.312 450.914 473.995 450.809C471.297 450.716 469.022 449.812 467.17 448.096C465.525 446.571 464.529 444.67 464.184 442.393C463.838 440.092 464.136 437.422 465.079 434.381C462.592 434.303 460.734 434.066 459.505 433.67C458.276 433.274 457.263 432.706 456.464 431.966C454.867 430.486 454.057 428.577 454.037 426.241C454.015 423.881 454.882 421.749 456.64 419.846C458.319 418.027 460.246 417.058 462.423 416.938C464.611 416.805 466.486 417.463 468.047 418.909C470.576 421.253 471.186 424.934 469.876 429.952L480.373 430.804C479.812 429.271 478.969 427.703 477.845 426.099L481.711 423.371C483.497 426.106 484.682 428.666 485.264 431.051C488.016 431.329 490.659 431.203 493.193 430.671L493.758 435.277C491.69 435.814 489.179 436.017 486.222 435.887ZM466.209 429.692C466.684 427.5 466.797 425.906 466.548 424.91C466.31 423.903 465.81 423.046 465.048 422.339C464.14 421.498 463.134 421.105 462.028 421.16C460.921 421.192 459.97 421.638 459.175 422.499C458.358 423.384 457.96 424.387 457.98 425.508C458.011 426.617 458.439 427.553 459.262 428.315C459.673 428.697 460.204 428.997 460.854 429.217C461.503 429.414 462.278 429.536 463.178 429.582L466.209 429.692ZM481.748 435.553L468.783 434.675C468.201 437.421 468.079 439.523 468.416 440.983C468.74 442.431 469.345 443.564 470.228 444.383C471.305 445.381 472.822 445.988 474.778 446.203C476.735 446.419 478.44 445.739 479.895 444.163C480.802 443.181 481.434 441.888 481.792 440.285C482.148 438.658 482.134 437.081 481.748 435.553Z" fill="#484848"/>
<path d="M507.994 415.488L477.371 396.055L479.938 391.995L510.561 411.428L507.994 415.488Z" fill="#484848"/>
<path d="M515.159 403.072L482.025 388.344L487.089 376.909C488.232 374.327 489.263 372.428 490.181 371.21C491.46 369.502 492.97 368.231 494.71 367.396C496.962 366.301 499.432 365.836 502.118 366C504.796 366.143 507.612 366.871 510.565 368.183C513.081 369.302 515.181 370.587 516.864 372.04C518.547 373.493 519.825 374.964 520.698 376.455C521.556 377.938 522.11 379.395 522.36 380.825C522.602 382.233 522.567 383.799 522.255 385.521C521.95 387.228 521.353 389.086 520.464 391.094L515.159 403.072ZM513.194 396.941L516.333 389.854C517.303 387.665 517.858 385.861 517.999 384.442C518.147 383.008 518.016 381.758 517.605 380.69C517.027 379.186 515.991 377.759 514.497 376.408C512.995 375.036 510.993 373.794 508.492 372.682C505.026 371.141 502.113 370.533 499.751 370.856C497.381 371.158 495.519 371.983 494.164 373.332C493.191 374.309 492.126 376.103 490.969 378.715L487.881 385.689L513.194 396.941Z" fill="#484848"/>
<path d="M529.885 367.713L494.65 359.186L500.803 333.661L504.961 334.668L499.934 355.521L510.726 358.132L515.434 338.603L519.568 339.604L514.86 359.133L526.853 362.035L532.078 340.363L536.236 341.369L529.885 367.713Z" fill="#484848"/>
<path d="M538.02 337.618L502.189 322.629L502.338 317.453L539 303.645L538.842 309.117L527.746 313.034L527.309 328.213L538.168 332.517L538.02 337.618ZM523.443 326.713L523.798 314.407L513.654 317.905C510.573 318.972 508.043 319.758 506.066 320.263C508.376 320.792 510.664 321.511 512.93 322.419L523.443 326.713Z" fill="#484848"/>
<path d="M148.991 331.327C166.035 331.816 157.757 339.133 151.913 339.62C144.124 340.597 123.186 345.475 113.935 350.353C97.8662 358.158 76.7339 368.012 81.7978 384.013C86.8618 400.014 118.317 401.087 133.411 399.624C158.244 399.624 205.8 387.259 229.822 374.745C241.995 368.403 274.131 351.329 289.226 331.327C302.86 313.26 297.503 308.236 292.634 305.961C288.349 300.497 245.89 297.18 225.439 293.765C210.494 291.27 182.785 290.448 167.983 275.228C153.18 260.007 168.307 236.364 177.721 226.445C192.523 208.883 259.037 176.686 312.598 166.442C316.98 165.954 352.525 155.222 382.715 162.539C407.158 168.463 397.971 191.483 390.505 201.565C385.831 211.322 348.143 243.518 321.85 249.86C312.923 251.161 295.653 250.446 297.99 237.177C300.328 223.908 326.881 210.834 339.866 205.956C345.709 203.516 348.143 207.419 346.196 208.395C339.866 211.566 322.661 221.403 313.085 228.396C310.975 230.022 307.924 233.567 312.598 234.737C318.441 236.201 351.552 223.03 376.385 201.565C396.251 184.394 383.039 177.824 373.95 176.686C319.804 169.661 222.518 207.419 182.103 238.152C160.679 256.201 179.182 266.934 191.842 269.861C217.649 277.666 266.828 274.739 290.687 287.423C315.617 299.911 309.677 326.937 300.911 337.181C276.077 376.695 201.093 420.599 121.724 417.185C68.7829 414.907 66.5396 388.403 72.058 373.28C75.1743 356.109 124.158 331.327 148.991 331.327Z" fill="#484848"/>
<path d="M334.996 107.903C437.225 107.903 520.919 187.405 527.841 288.063L531.739 287.963C524.761 185.195 439.343 104 334.996 104C278.389 104 227.353 127.895 191.389 166.167L193.98 169.103C229.247 131.435 279.379 107.903 334.996 107.903Z" fill="#484848"/>
<path d="M192.929 432.906L189.586 435.03C206.8 453.844 227.603 469.308 250.909 480.331L252.648 476.837C229.983 466.129 209.729 451.138 192.929 432.906Z" fill="#484848"/>
</svg>
