<svg width="29" height="28" viewBox="0 0 29 28" fill="none" xmlns="http://www.w3.org/2000/svg">
<path fill-rule="evenodd" clip-rule="evenodd" d="M1.57304 4.16953C0.740723 5.80304 0.740723 7.94142 0.740723 12.2182V15.7818C0.740723 20.0586 0.740723 22.197 1.57304 23.8304C2.30516 25.2673 3.47337 26.4356 4.91025 27.1676C6.54376 28 8.68215 28 12.9589 28H16.5225C20.7993 28 22.9377 28 24.5711 27.1676C26.008 26.4356 27.1763 25.2673 27.9084 23.8304C28.7407 22.197 28.7407 20.0586 28.7407 15.7818V12.2182C28.7407 7.94142 28.7407 5.80304 27.9084 4.16953C27.1763 2.73265 26.008 1.56444 24.5711 0.832313C22.9377 0 20.7993 0 16.5225 0H12.9589C8.68215 0 6.54376 0 4.91025 0.832313C3.47337 1.56444 2.30516 2.73265 1.57304 4.16953ZM16.5225 2.54545H12.9589C10.7785 2.54545 9.29631 2.54744 8.15064 2.64104C7.03466 2.73221 6.46397 2.89748 6.06586 3.10033C5.10795 3.58842 4.32914 4.36722 3.84105 5.32514C3.6382 5.72325 3.47294 6.29394 3.38176 7.40992C3.28816 8.55559 3.28618 10.0378 3.28618 12.2182V15.7818C3.28618 17.9623 3.28816 19.4443 3.38176 20.5901C3.47294 21.7061 3.6382 22.2768 3.84105 22.6749C4.32914 23.6328 5.10795 24.4115 6.06586 24.8996C6.46397 25.1025 7.03466 25.2678 8.15064 25.359C9.29631 25.4525 10.7785 25.4545 12.9589 25.4545H16.5225C18.703 25.4545 20.1851 25.4525 21.3308 25.359C22.4468 25.2678 23.0175 25.1025 23.4156 24.8996C24.3735 24.4115 25.1523 23.6328 25.6404 22.6749C25.8432 22.2768 26.0086 21.7061 26.0997 20.5901C26.1932 19.4443 26.1953 17.9623 26.1953 15.7818V12.2182C26.1953 10.0378 26.1932 8.55559 26.0997 7.40992C26.0086 6.29394 25.8432 5.72325 25.6404 5.32514C25.1523 4.36722 24.3735 3.58842 23.4156 3.10033C23.0175 2.89748 22.4468 2.73221 21.3308 2.64104C20.1851 2.54744 18.703 2.54545 16.5225 2.54545Z" fill="white" fill-opacity="0.9"/>
<path d="M16.5225 2.54545H12.9589C10.7785 2.54545 9.29631 2.54744 8.15064 2.64104C7.03466 2.73221 6.46397 2.89748 6.06586 3.10033C5.10795 3.58842 4.32914 4.36722 3.84105 5.32514C3.6382 5.72325 3.47294 6.29394 3.38176 7.40992C3.28816 8.55559 3.28618 10.0378 3.28618 12.2182V15.7818C3.28618 17.9623 3.28816 19.4443 3.38176 20.5901C3.47294 21.7061 3.6382 22.2768 3.84105 22.6749C4.32914 23.6328 5.10795 24.4115 6.06586 24.8996C6.46397 25.1025 7.03466 25.2678 8.15064 25.359C9.29631 25.4525 10.7785 25.4545 12.9589 25.4545H16.5225C18.703 25.4545 20.1851 25.4525 21.3308 25.359C22.4468 25.2678 23.0175 25.1025 23.4156 24.8996C24.3735 24.4115 25.1523 23.6328 25.6404 22.6749C25.8432 22.2768 26.0086 21.7061 26.0997 20.5901C26.1932 19.4443 26.1953 17.9623 26.1953 15.7818V12.2182C26.1953 10.0378 26.1932 8.55559 26.0997 7.40992C26.0086 6.29394 25.8432 5.72325 25.6404 5.32514C25.1523 4.36722 24.3735 3.58842 23.4156 3.10033C23.0175 2.89748 22.4468 2.73221 21.3308 2.64104C20.1851 2.54744 18.703 2.54545 16.5225 2.54545Z" fill="white" fill-opacity="0.9"/>
<path fill-rule="evenodd" clip-rule="evenodd" d="M14.7407 21.6365C18.9582 21.6365 22.3771 18.2176 22.3771 14.0001C22.3771 9.78268 18.9582 6.36377 14.7407 6.36377C10.5233 6.36377 7.10437 9.78268 7.10437 14.0001C7.10437 18.2176 10.5233 21.6365 14.7407 21.6365ZM14.7407 19.091C17.5523 19.091 19.8316 16.8117 19.8316 14.0001C19.8316 11.1885 17.5523 8.90922 14.7407 8.90922C11.9291 8.90922 9.64982 11.1885 9.64982 14.0001C9.64982 16.8117 11.9291 19.091 14.7407 19.091Z" fill="#363636"/>
<path d="M22.3771 5.09082C21.6742 5.09082 21.1044 5.66065 21.1044 6.36355C21.1044 7.06645 21.6742 7.63627 22.3771 7.63627C23.08 7.63627 23.6498 7.06645 23.6498 6.36355C23.6498 5.66065 23.08 5.09082 22.3771 5.09082Z" fill="#363636"/>
</svg>
