<svg width="29" height="28" viewBox="0 0 29 28" fill="none" xmlns="http://www.w3.org/2000/svg">
<path fill-rule="evenodd" clip-rule="evenodd" d="M1.57304 4.16953C0.740723 5.80304 0.740723 7.94142 0.740723 12.2182V15.7818C0.740723 20.0586 0.740723 22.197 1.57304 23.8304C2.30516 25.2673 3.47337 26.4356 4.91025 27.1676C6.54376 28 8.68215 28 12.9589 28H16.5225C20.7993 28 22.9377 28 24.5711 27.1676C26.008 26.4356 27.1763 25.2673 27.9084 23.8304C28.7407 22.197 28.7407 20.0586 28.7407 15.7818V12.2182C28.7407 7.94142 28.7407 5.80304 27.9084 4.16953C27.1763 2.73265 26.008 1.56444 24.5711 0.832313C22.9377 0 20.7993 0 16.5225 0H12.9589C8.68215 0 6.54376 0 4.91025 0.832313C3.47337 1.56444 2.30516 2.73265 1.57304 4.16953Z" fill="#484848"/>
<path fill-rule="evenodd" clip-rule="evenodd" d="M14.7409 21.6367C18.9583 21.6367 22.3772 18.2178 22.3772 14.0003C22.3772 9.78287 18.9583 6.36395 14.7409 6.36395C10.5234 6.36395 7.10449 9.78287 7.10449 14.0003C7.10449 18.2178 10.5234 21.6367 14.7409 21.6367ZM14.7409 19.0912C17.5524 19.0912 19.8318 16.8119 19.8318 14.0003C19.8318 11.1887 17.5524 8.90941 14.7409 8.90941C11.9292 8.90941 9.64995 11.1887 9.64995 14.0003C9.64995 16.8119 11.9292 19.0912 14.7409 19.0912Z" fill="white"/>
<path d="M22.377 5.09088C21.674 5.09088 21.1042 5.66071 21.1042 6.36361C21.1042 7.06651 21.674 7.63634 22.377 7.63634C23.0799 7.63634 23.6497 7.06651 23.6497 6.36361C23.6497 5.66071 23.0799 5.09088 22.377 5.09088Z" fill="white"/>
</svg>
