<svg width="260" height="260" viewBox="0 0 260 260" fill="none" xmlns="http://www.w3.org/2000/svg">
<circle cx="130" cy="130" r="130" fill="#484848"/>
<path d="M81 81H179M130 162.667L102.778 179M130 162.667L157.222 179M130 162.667V179M130 162.667V146.333M130 146.333H150.689C156.787 146.333 159.837 146.333 162.166 145.146C164.215 144.103 165.881 142.437 166.924 140.388C168.111 138.059 168.111 135.009 168.111 128.911V102.778M130 146.333H109.311C103.213 146.333 100.164 146.333 97.8343 145.146C95.7854 144.103 94.1196 142.437 93.0757 140.388C91.8889 138.059 91.8889 135.009 91.8889 128.911V102.778" stroke="white" stroke-opacity="0.8" stroke-width="10" stroke-linecap="round" stroke-linejoin="round"/>
</svg>
