<svg width="260" height="260" viewBox="0 0 260 260" fill="none" xmlns="http://www.w3.org/2000/svg">
<circle cx="130" cy="130" r="130" fill="#484848"/>
<path d="M174.381 72H86.0207C82.7093 72 80 74.7093 80 78.0207V181.979C80 185.291 82.7093 188 86.0207 188H174.38C177.692 188 180.401 185.291 180.401 183.585V79.6265C180.401 74.7097 177.692 72 174.381 72ZM110.633 171.368C110.633 173.134 109.188 174.579 107.422 174.579H92.6894C90.9231 174.579 89.4784 173.134 89.4784 171.368V158.598C89.4784 156.831 90.9231 155.387 92.6894 155.387H107.422C109.188 155.387 110.633 156.831 110.633 158.598V171.368ZM110.633 144.35C110.633 146.116 109.188 147.561 107.422 147.561H92.6894C90.9231 147.561 89.4784 146.116 89.4784 144.35V131.58C89.4784 129.814 90.9231 128.369 92.6894 128.369H107.422C109.188 128.369 110.633 129.814 110.633 131.58V144.35ZM139.962 171.368C139.962 173.134 138.517 174.579 136.751 174.579H122.019C120.253 174.579 118.808 173.134 118.808 171.368V158.598C118.808 156.831 120.253 155.387 122.019 155.387H136.751C138.517 155.387 139.962 156.831 139.962 158.598V171.368ZM139.962 144.35C139.962 146.116 138.517 147.561 136.751 147.561H122.019C120.253 147.561 118.808 146.116 118.808 144.35V131.58C118.808 129.814 120.253 128.369 122.019 128.369H136.751C138.517 128.369 139.962 129.814 139.962 131.58V144.35ZM171.228 171.368C171.228 173.134 169.783 174.579 168.017 174.579H152.898C151.132 174.579 149.687 173.134 149.687 171.368V131.581C149.687 129.814 151.132 128.369 152.898 128.369H168.017C169.783 128.369 171.228 129.814 171.228 131.581V171.368ZM171.343 109.166C171.343 111.374 169.536 113.18 167.329 113.18H93.0727C90.8652 113.18 89.0587 111.374 89.0587 109.166V90.1379C89.0587 87.9304 90.8652 86.124 93.0727 86.124H167.329C169.536 86.124 171.343 87.9304 171.343 90.1379V109.166Z" fill="white" fill-opacity="0.8"/>
</svg>
