<svg width="260" height="260" viewBox="0 0 260 260" fill="none" xmlns="http://www.w3.org/2000/svg">
<circle cx="130" cy="130" r="130" fill="#484848"/>
<path d="M174.915 85.2093C169.574 79.8706 160.885 79.8696 155.546 85.2106C148.694 92.0625 141.295 99.4617 126.015 114.741C125.651 115.103 125.375 115.544 125.205 116.029L117.353 138.407C116.917 139.649 117.233 141.031 118.163 141.961C119.093 142.891 120.471 143.207 121.717 142.772L144.096 134.92C144.581 134.749 145.021 134.473 145.383 134.11C160.654 118.839 168.067 111.426 174.915 104.578C180.253 99.2379 180.253 90.5501 174.915 85.2093ZM126.173 133.951L129.719 123.844L136.28 130.405L126.173 133.951ZM170.073 99.736L165.231 104.578L155.546 94.8938L160.388 90.0518C163.057 87.3815 167.403 87.3815 170.073 90.0518C172.741 92.7223 172.741 97.0655 170.073 99.736Z" fill="white" fill-opacity="0.8"/>
<path d="M181.994 176.157C177.447 171.61 162.157 156.32 144.883 139.046L128.193 144.902C127.09 145.287 125.949 145.48 124.792 145.48C123.425 145.48 122.099 145.214 120.872 144.707L131.778 155.614C133.931 157.765 132.402 161.458 129.358 161.458H101.967C100.076 161.458 98.5432 159.926 98.5432 158.035V130.644C98.5432 127.594 102.243 126.073 104.388 128.223L115.352 139.187C114.383 136.875 114.247 134.241 115.101 131.808L120.956 115.119C103.656 97.8187 88.3514 82.5136 83.8444 78.0069C81.7006 75.8557 78 77.3788 78 80.4277V106.677H84.8477C86.7389 106.677 88.2715 108.21 88.2715 110.101C88.2715 111.992 86.7389 113.525 84.8477 113.525H78V120.372H84.8477C86.7389 120.372 88.2715 121.905 88.2715 123.796C88.2715 125.687 86.7389 127.22 84.8477 127.22H78V134.068H84.8477C86.7389 134.068 88.2715 135.6 88.2715 137.491C88.2715 139.383 86.7389 140.915 84.8477 140.915H78V147.763H84.8477C86.7389 147.763 88.2715 149.295 88.2715 151.187C88.2715 153.078 86.7389 154.611 84.8477 154.611H78V161.458H84.8477C86.7389 161.458 88.2715 162.991 88.2715 164.882C88.2715 166.773 86.7389 168.306 84.8477 168.306H78V178.577C78 180.469 79.5326 182.001 81.4238 182.001H179.574C182.62 182.001 184.144 178.307 181.994 176.157Z" fill="white" fill-opacity="0.8"/>
</svg>
