<svg width="260" height="260" viewBox="0 0 260 260" fill="none" xmlns="http://www.w3.org/2000/svg">
<circle cx="130" cy="130" r="130" fill="#484848"/>
<path d="M149.667 192C142.283 192 135.065 189.801 128.925 185.68C122.786 181.56 118.001 175.703 115.175 168.851C112.349 161.998 111.61 154.458 113.051 147.184C114.491 139.91 118.047 133.228 123.268 127.983C128.489 122.739 135.141 119.167 142.383 117.721C149.625 116.274 157.132 117.016 163.954 119.855C170.775 122.693 176.606 127.499 180.708 133.666C184.81 139.833 187 147.083 187 154.5C187 164.446 183.067 173.984 176.065 181.017C169.064 188.049 159.568 192 149.667 192ZM109.222 109.856C128.125 109.856 143.444 100.263 143.444 88.4312C143.444 76.6 128.125 67 109.222 67C90.3191 67 75 76.5937 75 88.4312C75 100.269 90.3191 109.856 109.222 109.856ZM104.076 134.5C106.2 129.662 109.073 125.192 112.588 121.256C111.468 121.325 110.373 121.462 109.222 121.462C90.3191 121.462 75 111.869 75 100.037V113.425C75 124.156 87.6436 132.931 104.076 134.5ZM100.754 163.6C100.19 160.599 99.901 157.553 99.8889 154.5C99.8889 153 99.9822 151.519 100.113 150.05C85.6524 147.556 75 139.35 75 129.5V142.894C75 152.887 85.9636 161.231 100.754 163.6ZM109.222 192C111.467 191.998 113.709 191.858 115.936 191.581C114.395 190.128 112.994 188.534 111.748 186.819C109.543 184.221 107.606 181.404 105.968 178.412C88.6142 177.375 75 168.319 75 157.181V170.569C75 182.406 90.3191 192 109.222 192Z" fill="white" fill-opacity="0.8"/>
</svg>
