<svg width="260" height="260" viewBox="0 0 260 260" fill="none" xmlns="http://www.w3.org/2000/svg">
<circle cx="130" cy="130" r="130" fill="#484848"/>
<path d="M125.13 81H70.0707C62.2925 81 56 87.3362 56 95.0707V132.433C56 139.817 61.7244 145.935 69.022 146.503V156.772C69.022 158.083 69.8086 159.307 71.0321 159.787C71.4254 159.962 71.8624 160.05 72.2993 160.05C73.1733 160.05 74.0036 159.7 74.6153 159.088L87.1567 146.547H119.712V151.31C119.712 159.088 126.048 165.424 133.826 165.424H171.843L184.385 177.966C184.996 178.578 185.87 178.927 186.701 178.927C187.138 178.927 187.531 178.84 187.968 178.665C189.191 178.141 189.978 176.961 189.978 175.65V165.337C197.232 164.769 203 158.695 203 151.266V113.905C203 106.126 196.664 99.7901 188.886 99.7901H139.245V95.0271C139.245 87.2925 132.908 81 125.13 81ZM85.7583 139.992C84.8844 139.992 84.0541 140.342 83.4423 140.954L75.533 148.863V143.27C75.533 141.478 74.0473 139.992 72.2556 139.992H70.0707C65.9194 139.992 62.5547 136.628 62.5547 132.476V95.1144C62.5547 90.9631 65.9194 87.5984 70.0707 87.5984H125.13C129.282 87.5984 132.646 90.9631 132.646 95.1144V132.476C132.646 136.628 129.282 139.992 125.13 139.992H85.7583ZM188.842 106.389C192.993 106.389 196.402 109.753 196.402 113.948V151.31C196.402 155.461 193.037 158.87 188.842 158.87H186.657C184.865 158.87 183.38 160.356 183.38 162.147V167.74L175.47 159.831C174.859 159.219 174.028 158.87 173.154 158.87H133.782C129.631 158.87 126.223 155.505 126.223 151.31V146.503C133.477 145.935 139.201 139.861 139.201 132.476V106.432H188.842V106.389Z" fill="white" fill-opacity="0.8"/>
<path d="M97.6879 126.927C96.8139 126.927 95.9836 127.276 95.3719 127.888C94.7601 128.5 94.4105 129.33 94.4105 130.204C94.4105 131.078 94.7601 131.908 95.3719 132.52C95.9836 133.132 96.8139 133.481 97.6879 133.481C98.5618 133.481 99.3921 133.132 100.004 132.52C100.616 131.908 100.965 131.078 100.965 130.204C100.965 129.33 100.616 128.5 100.004 127.888C99.3921 127.276 98.5618 126.927 97.6879 126.927Z" fill="white" fill-opacity="0.8"/>
<path d="M97.6005 94.0657C92.0071 94.0657 87.4188 98.6103 87.4188 104.247V104.466C87.4188 106.257 88.9046 107.743 90.6962 107.743C92.4878 107.743 93.9735 106.257 93.9735 104.466V104.247C93.9735 102.281 95.5903 100.62 97.6005 100.62C99.6106 100.62 101.227 102.237 101.227 104.247C101.227 106.17 100.485 107.962 99.1299 109.316C96.1147 112.331 94.4542 116.352 94.4542 120.634C94.4542 122.426 95.9399 123.911 97.7315 123.911C99.5232 123.911 101.009 122.426 101.009 120.634C101.009 118.1 101.97 115.74 103.762 113.948C106.34 111.37 107.782 107.918 107.782 104.247C107.782 98.6103 103.194 94.0657 97.6005 94.0657Z" fill="white" fill-opacity="0.8"/>
</svg>
