<svg width="260" height="260" viewBox="0 0 260 260" fill="none" xmlns="http://www.w3.org/2000/svg">
<circle cx="130" cy="130" r="130" fill="#484848"/>
<path d="M182.895 74H112.158C105.674 74 100.368 79.3053 100.368 85.7895V97.5789C80.9158 97.5789 65 113.495 65 132.947V168.316H76.7895C76.7895 178.083 84.7061 186 94.4737 186C104.241 186 112.158 178.083 112.158 168.316H135.737C135.737 178.083 143.653 186 153.421 186C163.189 186 171.105 178.083 171.105 168.316H182.895C189.379 168.316 194.684 163.011 194.684 156.526V85.7895C194.684 79.3053 189.379 74 182.895 74ZM159.316 168.316C159.316 171.567 156.672 174.211 153.421 174.211C150.17 174.211 147.526 171.567 147.526 168.316C147.526 165.065 150.17 162.421 153.421 162.421C156.672 162.421 159.316 165.065 159.316 168.316ZM94.4737 174.211C91.2227 174.211 88.5789 171.567 88.5789 168.316C88.5789 165.065 91.2227 162.421 94.4737 162.421C97.7246 162.421 100.368 165.065 100.368 168.316C100.368 171.567 97.7246 174.211 94.4737 174.211ZM100.368 106.421V118.211C94.8804 118.211 90.312 121.977 88.9945 127.053H74.5229C77.2168 115.257 87.7714 106.421 100.368 106.421Z" fill="white" fill-opacity="0.8"/>
</svg>
