<svg width="260" height="260" viewBox="0 0 260 260" fill="none" xmlns="http://www.w3.org/2000/svg">
<circle cx="130" cy="130" r="130" fill="#484848"/>
<path d="M91.4286 143.107C78.4843 143.107 68 153.591 68 166.535C68 170.928 69.23 175.087 71.3971 178.601C75.4386 185.395 82.8771 189.964 91.4286 189.964C99.98 189.964 107.419 185.395 111.46 178.601C113.627 175.087 114.857 170.928 114.857 166.535C114.857 153.591 104.373 143.107 91.4286 143.107ZM102.967 164.602L90.4914 176.141C89.6714 176.902 88.5586 177.312 87.5043 177.312C86.3914 177.312 85.2786 176.902 84.4 176.024L78.6014 170.225C76.9029 168.527 76.9029 165.715 78.6014 164.017C80.3 162.318 83.1114 162.318 84.81 164.017L87.6214 166.828L96.9928 158.16C98.75 156.52 101.561 156.637 103.201 158.394C104.841 160.151 104.724 162.962 102.967 164.602Z" fill="white" fill-opacity="0.81"/>
<path d="M188.071 128.464H173.429C166.986 128.464 161.714 133.735 161.714 140.178C161.714 146.621 166.986 151.892 173.429 151.892H188.071C189.711 151.892 191 150.604 191 148.964V131.392C191 129.752 189.711 128.464 188.071 128.464Z" fill="white" fill-opacity="0.81"/>
<path d="M158.957 86.8789C160.714 88.5775 159.25 91.2132 156.79 91.2132L108.293 91.1546C105.481 91.1546 104.076 87.7575 106.067 85.7661L116.317 75.4575C124.985 66.8475 138.984 66.8475 147.653 75.4575L158.723 86.6446C158.781 86.7032 158.898 86.8204 158.957 86.8789Z" fill="white" fill-opacity="0.81"/>
<path d="M190.235 164.544C186.662 176.609 176.354 184.106 162.296 184.106H124.225C121.941 184.106 120.476 181.588 121.414 179.479C123.171 175.379 124.284 170.752 124.284 166.535C124.284 148.788 109.816 134.321 92.0692 134.321C87.6178 134.321 83.2835 135.258 79.3007 137.015C77.1335 137.952 74.4978 136.488 74.4978 134.145V125.535C74.4978 109.604 84.1035 98.475 99.0392 96.6007C100.504 96.3664 102.085 96.2493 103.725 96.2493H162.296C163.819 96.2493 165.284 96.3078 166.689 96.5421C178.521 97.8893 187.072 105.094 190.235 115.812C190.821 117.745 189.415 119.678 187.424 119.678H174.011C161.301 119.678 151.226 131.275 153.979 144.454C155.912 154.059 164.815 160.678 174.596 160.678H187.424C189.474 160.678 190.821 162.669 190.235 164.544Z" fill="white" fill-opacity="0.81"/>
</svg>
