<svg width="260" height="260" viewBox="0 0 260 260" fill="none" xmlns="http://www.w3.org/2000/svg">
<circle cx="130" cy="130" r="130" fill="#484848"/>
<path d="M89.7353 115.677V171C89.7353 174.78 88.5093 178.458 86.2412 181.482L81 188.471M171.265 115.677V171C171.265 174.78 172.491 178.458 174.759 181.482L180 188.471" stroke="#DADADA" stroke-width="10" stroke-linecap="round"/>
<path d="M97.547 101.118C96.2595 105.671 95.5588 110.572 95.5588 115.676C95.5588 139.798 111.203 159.353 130.5 159.353C149.797 159.353 165.441 139.798 165.441 115.676C165.441 91.5546 149.797 72 130.5 72C124.147 72 118.19 74.1194 113.057 77.8235" stroke="#DADADA" stroke-width="10" stroke-linecap="round"/>
<path d="M89.7353 176.823H130.5M171.265 176.823H153.794" stroke="#DADADA" stroke-width="10" stroke-linecap="round"/>
<path d="M136.324 90.9619C141.919 93.9285 146.206 101.05 147.538 109.854" stroke="#DADADA" stroke-width="10" stroke-linecap="round"/>
</svg>
