<svg width="34" height="28" viewBox="0 0 34 28" fill="none" xmlns="http://www.w3.org/2000/svg">
<path d="M30.876 0.247192C30.876 0.247192 33.9843 -0.964807 33.7252 1.97862C33.6389 3.19064 32.8619 7.43263 32.2575 12.021L30.1853 25.6127C30.1853 25.6127 30.0127 27.6038 28.4585 27.9501C26.9044 28.2964 24.5732 26.7381 24.1415 26.3918C23.7961 26.1321 17.6661 22.2364 15.5075 20.3318C14.9031 19.8124 14.2124 18.7735 15.5938 17.5615L24.6596 8.90439C25.6956 7.86552 26.7317 5.44152 22.4147 8.38495L10.3271 16.6093C10.3271 16.6093 8.94566 17.4749 6.3555 16.6958L0.743361 14.9644C0.743361 14.9644 -1.32881 13.6658 2.21114 12.3672C10.8452 8.29831 21.465 4.14288 30.876 0.247192Z" fill="#484848"/>
</svg>
