<svg width="34" height="28" viewBox="0 0 34 28" fill="none" xmlns="http://www.w3.org/2000/svg">
<path d="M30.8762 0.247192C30.8762 0.247192 33.9844 -0.964807 33.7254 1.97862C33.639 3.19064 32.862 7.43263 32.2576 12.021L30.1854 25.6127C30.1854 25.6127 30.0128 27.6038 28.4586 27.9501C26.9045 28.2964 24.5734 26.7381 24.1416 26.3918C23.7963 26.1321 17.6662 22.2364 15.5076 20.3318C14.9032 19.8124 14.2125 18.7735 15.5939 17.5615L24.6597 8.9044C25.6958 7.86552 26.7318 5.44152 22.4148 8.38495L10.3272 16.6093C10.3272 16.6093 8.94578 17.4749 6.35562 16.6958L0.743483 14.9644C0.743483 14.9644 -1.32868 13.6658 2.21127 12.3672C10.8453 8.29831 21.4651 4.14288 30.8762 0.247192Z" fill="white" fill-opacity="0.9"/>
</svg>
