<svg width="49" height="28" viewBox="0 0 49 28" fill="none" xmlns="http://www.w3.org/2000/svg">
<path d="M29.1507 13.4684C28.2704 13.1375 28.2704 11.8734 28.2158 10.9931C27.9957 7.85757 29.0961 3.07062 27.7757 1.03542C26.8408 -0.175836 22.3285 -0.0649215 19.5785 0.10057C18.8074 0.211485 17.8726 0.375218 17.2124 0.706202C16.5521 1.03719 15.8919 1.58648 15.8919 2.08119C15.8919 2.79598 17.5433 2.68682 18.1472 3.62168C18.8074 4.61287 18.8074 6.75722 18.8074 8.51777C18.8074 10.553 18.4764 13.2501 17.6525 13.3593C16.3867 13.4139 15.6719 12.148 15.0117 11.2132C13.6912 9.39805 12.3708 7.14102 11.3796 4.94033C10.8849 3.78541 10.6085 2.51957 9.89374 2.02486C8.79339 1.25373 6.81277 1.19916 4.88673 1.25373C3.12617 1.30831 0.594498 1.08824 0.0997824 2.13401C-0.285779 3.28893 0.539921 4.38928 0.980059 5.32589C3.23533 10.222 5.65609 14.5142 8.6279 18.5846C11.3796 22.3804 13.9641 25.4068 19.0257 27.0018C20.4571 27.442 26.7281 28.7078 27.994 27.0018C28.4341 26.3416 28.325 24.8557 28.545 23.7554C28.7651 22.655 29.0397 21.5547 30.0855 21.5001C30.9658 21.4455 31.4605 22.2149 32.0116 22.7659C32.6172 23.3716 33.1119 23.8663 33.552 24.4173C34.5978 25.4631 35.6982 26.8927 37.0186 27.4437C38.8337 28.2148 41.64 27.9948 44.2809 27.8839C46.427 27.8293 47.9674 27.3891 48.1329 26.1233C48.2439 25.1321 47.1418 23.7025 46.4815 22.8768C44.8301 20.8416 44.0608 20.236 42.1893 18.3645C41.3636 17.5388 40.3178 16.6586 40.3178 15.6691C40.2633 15.0635 40.758 14.5142 41.1981 13.9086C43.1242 11.0477 45.0502 9.01249 46.8108 6.04068C47.3055 5.1604 48.4622 3.1252 48.022 2.13401C47.5273 1.03366 44.7756 1.36289 43.0696 1.36289C40.8689 1.36289 38.008 1.19739 37.457 1.63753C36.4112 2.35232 35.971 3.509 35.4763 4.60935C34.376 7.14102 32.8901 9.72551 31.3496 11.6516C30.7985 12.3118 29.7545 13.6868 29.1489 13.4667L29.1507 13.4684Z" fill="white" fill-opacity="0.9"/>
</svg>
