<svg width="29" height="28" viewBox="0 0 29 28" fill="none" xmlns="http://www.w3.org/2000/svg">
<path fill-rule="evenodd" clip-rule="evenodd" d="M22.8901 19.7695C22.5527 20.7246 21.2115 21.5147 20.1419 21.7458C19.4097 21.9012 18.4549 22.0242 15.2377 20.691C11.6243 19.194 6.60673 13.8614 6.60673 10.3127C6.60673 8.50615 7.64832 6.40254 9.46972 6.40254C10.3461 6.40254 10.5393 6.41963 10.8277 7.11143C11.1651 7.92648 11.9883 9.93457 12.0863 10.1404C12.4909 10.9849 11.6747 11.4792 11.0825 12.2145C10.8935 12.4357 10.6793 12.675 10.9187 13.0867C11.1567 13.49 11.9799 14.8317 13.1895 15.9086C14.7519 17.3006 16.0189 17.745 16.4725 17.9341C16.8099 18.0741 17.2131 18.0415 17.4595 17.7782C17.7717 17.4407 18.1595 16.8808 18.5543 16.329C18.8329 15.9341 19.1871 15.8848 19.5581 16.0248C19.8087 16.1116 22.9937 17.5908 23.1281 17.8274C23.2275 17.9997 23.2275 18.8144 22.8901 19.7695ZM14.7435 0H14.7365C7.01831 0 0.740723 6.27949 0.740723 14C0.740723 17.0613 1.72773 19.9015 3.40633 22.2052L1.66193 27.4073L7.04213 25.6881C9.25553 27.1529 11.8973 28 14.7435 28C22.4617 28 28.7407 21.7205 28.7407 14C28.7407 6.27949 22.4617 0 14.7435 0Z" fill="white" fill-opacity="0.9"/>
</svg>
